<svg width="24" height="24" viewBox="0 0 24 24" fill="none" xmlns="http://www.w3.org/2000/svg">
<path d="M20 15.5C18.7955 15.5 17.5982 15.3145 16.4502 14.9502C16.1001 14.8501 15.7002 14.8999 15.4502 15.2002L13.25 17.4C10.3999 15.9502 8.10009 13.65 6.64987 10.7998L8.85014 8.60011C9.10008 8.35012 9.19992 7.95023 9.10008 7.60013C8.69991 6.45023 8.49998 5.25 8.49998 3.99998C8.49998 3.45019 8.05003 3 7.5 3H3.99998C3.44995 3 3 3.45019 3 3.99998C3 13.3999 10.6001 21 20 21C20.5498 21 21 20.5498 21 20V16.5C21 15.9502 20.5498 15.5 20 15.5Z" fill="#2F80ED"/>
</svg>
