<svg width="24" height="24" viewBox="0 0 24 24" fill="none" xmlns="http://www.w3.org/2000/svg">
<path d="M13.875 6.375C13.875 5.34366 13.0313 4.5 12 4.5C10.9687 4.5 10.125 5.34366 10.125 6.375C10.125 7.40634 10.9687 8.25 12 8.25C13.0313 8.25 13.875 7.40634 13.875 6.375ZM13.875 17.625C13.875 16.5937 13.0313 15.75 12 15.75C10.9687 15.75 10.125 16.5937 10.125 17.625C10.125 18.6563 10.9687 19.5 12 19.5C13.0313 19.5 13.875 18.6563 13.875 17.625ZM13.875 12C13.875 10.9687 13.0313 10.125 12 10.125C10.9687 10.125 10.125 10.9687 10.125 12C10.125 13.0313 10.9687 13.875 12 13.875C13.0313 13.875 13.875 13.0313 13.875 12Z" fill="#2F80ED"/>
</svg>
