<svg width="24" height="27" viewBox="0 0 24 27" fill="currentColor" xmlns="http://www.w3.org/2000/svg">
    <g>

        <path
            d="M16 12.651C17.66 12.651 18.99 11.2109 18.99 9.42684C18.99 7.64278 17.66 6.20264 16 6.20264C14.34 6.20264 13 7.64278 13 9.42684C13 11.2109 14.34 12.651 16 12.651ZM8 12.651C9.66 12.651 10.99 11.2109 10.99 9.42684C10.99 7.64278 9.66 6.20264 8 6.20264C6.34 6.20264 5 7.64278 5 9.42684C5 11.2109 6.34 12.651 8 12.651ZM8 14.8005C5.67 14.8005 1 16.0579 1 18.5621V21.2489H15V18.5621C15 16.0579 10.33 14.8005 8 14.8005ZM16 14.8005C15.71 14.8005 15.38 14.822 15.03 14.8542C16.19 15.757 17 16.9715 17 18.5621V21.2489H23V18.5621C23 16.0579 18.33 14.8005 16 14.8005Z"
            fill="currentColor " />
    </g>
</svg>